<svg width="20" height="20" viewBox="0 0 57 57" fill="none" xmlns="http://www.w3.org/2000/svg">
<g clip-path="url(#clip0)">
<path d="M28.5004 55.9823C43.6782 55.9823 55.9823 43.6782 55.9823 28.5004C55.9823 13.3226 43.6782 1.01855 28.5004 1.01855C13.3226 1.01855 1.01855 13.3226 1.01855 28.5004C1.01855 43.6782 13.3226 55.9823 28.5004 55.9823Z" fill="#F95428"/>
<path d="M14.0614 42.9384C4.17534 33.0522 3.39638 17.5082 11.7237 6.72998C10.8012 7.44259 9.91374 8.22166 9.06765 9.06776C-1.66448 19.7999 -1.66448 37.2001 9.06765 47.9322C19.7998 58.6643 37.2 58.6643 47.9321 47.9322C48.7781 47.0862 49.5572 46.1985 50.2699 45.2762C39.4917 53.6034 23.9475 52.8244 14.0614 42.9384Z" fill="#E54728"/>
<path d="M24.5803 36.335C24.2843 36.335 23.9907 36.2066 23.7894 35.959C23.4345 35.5226 23.5004 34.8809 23.937 34.526C25.2336 33.4714 26.88 32.8906 28.5731 32.8906C30.1873 32.8906 31.7738 33.4249 33.0402 34.3949C33.4868 34.737 33.5715 35.3764 33.2296 35.823C32.8875 36.2697 32.2483 36.3543 31.8015 36.0124C30.8886 35.3131 29.742 34.928 28.5731 34.928C27.3469 34.928 26.1569 35.3466 25.2225 36.1067C25.0335 36.2601 24.8062 36.335 24.5803 36.335Z" fill="#E54728"/>
<path d="M28.5001 0C12.785 0 0 12.785 0 28.5001C0 44.2151 12.785 57.0001 28.5001 57.0001C44.2151 57.0001 57 44.215 57 28.5001C57 12.7851 44.215 0 28.5001 0ZM28.5001 54.9627C13.9084 54.9627 2.03719 43.0917 2.03719 28.5001C2.03719 13.9084 13.9084 2.03719 28.5001 2.03719C43.0917 2.03719 54.9629 13.9083 54.9629 28.5001C54.9629 43.0918 43.0915 54.9627 28.5001 54.9627Z" fill="black"/>
<path d="M20.1032 25.5811C20.1032 25.1454 20.0279 24.727 19.8913 24.3374C20.2983 24.3792 20.7237 24.4029 21.1695 24.4029C22.3493 24.4029 23.6646 24.2424 25.1152 23.848C25.6579 23.7003 25.9783 23.1407 25.8308 22.5976C25.6831 22.0547 25.1225 21.7347 24.5805 21.882C17.3517 23.8485 14.2216 19.2496 14.0901 19.0501C13.7844 18.5804 13.1565 18.4456 12.6851 18.7493C12.212 19.0537 12.0756 19.6841 12.38 20.1571C12.414 20.2101 13.0969 21.2536 14.5007 22.2905C13.3477 22.9357 12.5661 24.1685 12.5661 25.5811C12.5661 27.6592 14.2567 29.3498 16.3347 29.3498C18.4128 29.3498 20.1032 27.6592 20.1032 25.5811Z" fill="black"/>
<path d="M28.9809 28.6128C23.9361 28.6128 19.445 31.7515 17.8053 36.4229C17.619 36.9537 17.8984 37.5349 18.4291 37.7214C18.9603 37.9079 19.5412 37.6286 19.7277 37.0976C21.0813 33.2411 24.8 30.6501 28.981 30.6501C33.1612 30.6501 36.8794 33.2411 38.2331 37.0976C38.3802 37.5169 38.7738 37.7793 39.1943 37.7792C39.3062 37.7792 39.42 37.7606 39.5316 37.7215C40.0624 37.5352 40.3416 36.9539 40.1554 36.423C38.5154 31.7513 34.0248 28.6128 28.9809 28.6128Z" fill="black"/>
<path d="M44.3179 18.7539C43.8482 18.4479 43.2181 18.5813 42.9099 19.0495C42.7803 19.2463 39.6502 23.8485 32.4196 21.8818C31.8773 21.7343 31.3171 22.0545 31.1693 22.5974C31.0216 23.1403 31.342 23.6999 31.8849 23.8478C33.3358 24.2423 34.6506 24.4027 35.8306 24.4027C36.2762 24.4027 36.7015 24.379 37.1086 24.3372C36.972 24.7268 36.8967 25.1451 36.8967 25.5809C36.8967 27.659 38.5874 29.3496 40.6654 29.3496C42.7435 29.3496 44.4341 27.659 44.4341 25.5809C44.4341 24.1683 43.6525 22.9355 42.4994 22.2903C43.9034 21.2534 44.5862 20.2099 44.6201 20.1569C44.9233 19.6853 44.7874 19.0598 44.3179 18.7539Z" fill="black"/>
<path d="M17.3639 26.1603C17.9264 26.1603 18.3825 25.7043 18.3825 25.1417C18.3825 24.5791 17.9264 24.123 17.3639 24.123C16.8013 24.123 16.3452 24.5791 16.3452 25.1417C16.3452 25.7043 16.8013 26.1603 17.3639 26.1603Z" fill="white"/>
<path d="M41.6744 26.1603C42.237 26.1603 42.6931 25.7043 42.6931 25.1417C42.6931 24.5791 42.237 24.123 41.6744 24.123C41.1118 24.123 40.6558 24.5791 40.6558 25.1417C40.6558 25.7043 41.1118 26.1603 41.6744 26.1603Z" fill="white"/>
</g>
<defs>
<clipPath id="clip0">
<rect width="57" height="57" fill="white"/>
</clipPath>
</defs>
</svg>
