<svg width="20" height="20" viewBox="0 0 57 57" fill="none" xmlns="http://www.w3.org/2000/svg">
<path d="M28.5005 55.9824C43.6783 55.9824 55.9824 43.6783 55.9824 28.5005C55.9824 13.3226 43.6783 1.01855 28.5005 1.01855C13.3226 1.01855 1.01855 13.3226 1.01855 28.5005C1.01855 43.6783 13.3226 55.9824 28.5005 55.9824Z" fill="#F7B239"/>
<path d="M14.0614 42.9386C4.17535 33.0524 3.39638 17.5083 11.7237 6.72998C10.8014 7.44259 9.91387 8.22155 9.06766 9.06765C-1.66448 19.7998 -1.66448 37.2 9.06766 47.9322C19.7998 58.6643 37.2001 58.6643 47.9322 47.9322C48.7782 47.0862 49.5573 46.1985 50.27 45.2761C39.4917 53.6036 23.9476 52.8245 14.0614 42.9386Z" fill="#E09B2D"/>
<path d="M41.5563 23.9707V28.731C34.3459 35.9414 22.6551 35.9414 15.4434 28.731V23.9707C22.6551 31.1824 34.3459 31.1824 41.5563 23.9707Z" fill="white"/>
<path d="M31.8222 37.5005C33.9409 37.5005 35.7825 38.6835 36.7238 40.4245C34.4788 42.2485 31.6172 43.3404 28.5003 43.3404C25.3834 43.3404 22.5218 42.2485 20.2769 40.4245C21.2167 38.6833 23.0597 37.5005 25.177 37.5005C26.4224 37.5005 27.5727 37.9093 28.5003 38.6006C29.4278 37.9093 30.5768 37.5005 31.8222 37.5005Z" fill="#F95428"/>
<path d="M41.5564 28.7306V30.2843C41.5564 33.8901 40.095 37.1538 37.7318 39.5155C37.4126 39.836 37.0758 40.1389 36.7241 40.424C35.7829 38.6829 33.9412 37.5 31.8225 37.5C30.5771 37.5 29.4281 37.9088 28.5005 38.6002C27.5729 37.9089 26.4225 37.5 25.1771 37.5C23.0598 37.5 21.2168 38.683 20.277 40.424C17.3271 38.0324 15.4434 34.3776 15.4434 30.2842V28.7305C22.6552 35.941 34.346 35.941 41.5564 28.7306Z" fill="#A81004"/>
<path d="M19.1155 20.5242C19.1155 21.0867 19.5717 21.5428 20.1342 21.5428C20.6967 21.5428 21.1529 21.0867 21.1529 20.5242C21.1529 16.9666 18.2585 14.0723 14.7009 14.0723C11.1433 14.0723 8.24902 16.9666 8.24902 20.5242C8.24902 21.0867 8.70514 21.5428 9.26768 21.5428C9.83022 21.5428 10.2863 21.0867 10.2863 20.5242C10.2863 18.0899 12.2667 16.1095 14.701 16.1095C17.1353 16.1095 19.1155 18.09 19.1155 20.5242Z" fill="black"/>
<path d="M42.2991 14.0723C38.7415 14.0723 35.8472 16.9666 35.8472 20.5242C35.8472 21.0867 36.3033 21.5428 36.8658 21.5428C37.4284 21.5428 37.8845 21.0867 37.8845 20.5242C37.8845 18.0899 39.8649 16.1095 42.2992 16.1095C44.7335 16.1095 46.7139 18.0899 46.7139 20.5242C46.7139 21.0867 47.17 21.5428 47.7326 21.5428C48.2951 21.5428 48.7512 21.0867 48.7512 20.5242C48.7511 16.9666 45.8568 14.0723 42.2991 14.0723Z" fill="black"/>
<path d="M41.946 23.0292C41.5656 22.8717 41.1272 22.9587 40.836 23.2501C37.5411 26.5456 33.1602 28.3605 28.5002 28.3605C23.8403 28.3605 19.4592 26.5456 16.1636 23.2501C15.8723 22.9586 15.4342 22.8717 15.0536 23.0292C14.673 23.1868 14.4248 23.5583 14.4248 23.9702V30.2842C14.4248 34.5462 16.3241 38.5304 19.6346 41.2146C22.13 43.242 25.2787 44.3585 28.5006 44.3585C31.7225 44.3585 34.8711 43.242 37.3655 41.2153C37.7483 40.9049 38.1144 40.5748 38.4519 40.2359C41.1107 37.5788 42.5749 34.0444 42.5749 30.2842V23.9702C42.575 23.5583 42.3268 23.1869 41.946 23.0292ZM28.5004 30.3978C32.9222 30.3978 37.1187 28.9348 40.5376 26.2372V28.3013C33.8148 34.7146 23.1861 34.7146 16.4619 28.3013V26.2371C19.8814 28.9344 24.0786 30.3978 28.5004 30.3978ZM21.659 40.1858C22.5136 39.1418 23.7973 38.5186 25.1771 38.5186C26.1646 38.5186 27.1033 38.8292 27.8918 39.4169C28.253 39.686 28.7479 39.686 29.1091 39.4169C29.8976 38.8292 30.8358 38.5186 31.8225 38.5186C33.2022 38.5186 34.4864 39.1418 35.3417 40.1861C33.342 41.5675 30.9467 42.3213 28.5005 42.3213C26.0546 42.3216 23.6593 41.5678 21.659 40.1858ZM37.0101 38.7969C36.979 38.8283 36.9464 38.8589 36.9148 38.8901C35.6768 37.381 33.8185 36.4816 31.8227 36.4816C30.6401 36.4816 29.505 36.7902 28.5007 37.3796C27.4962 36.7901 26.3606 36.4816 25.1773 36.4816C23.1809 36.4816 21.3225 37.3814 20.0855 38.8909C17.9429 36.8018 16.6628 34.0087 16.4843 31.0111C19.9989 33.7683 24.2494 35.1479 28.5005 35.1479C32.7506 35.1479 37 33.7688 40.5139 31.0126C40.3393 33.9541 39.1128 36.6953 37.0101 38.7969Z" fill="black"/>
<path d="M28.4999 0C12.785 0 0 12.785 0 28.5001C0 44.2152 12.785 57 28.4999 57C44.215 57 57 44.215 57 28.5001C57 12.785 44.215 0 28.4999 0ZM28.4999 54.9628C13.9083 54.9628 2.03719 43.0917 2.03719 28.5001C2.03719 13.9084 13.9083 2.03719 28.4999 2.03719C43.0916 2.03719 54.9628 13.9083 54.9628 28.5001C54.9628 43.0916 43.0916 54.9628 28.4999 54.9628Z" fill="black"/>
</svg>
