<svg width="122" height="54" viewBox="0 0 122 54" fill="none" xmlns="http://www.w3.org/2000/svg">
<path d="M0.945 34.955H1.925C2.415 34.955 2.75333 34.85 2.94 34.64C3.15 34.43 3.255 34.08 3.255 33.59V19.695C3.255 19.2517 3.15 18.925 2.94 18.715C2.75333 18.505 2.415 18.4 1.925 18.4H0.945V15.355H13.335C15.3183 15.355 16.8583 15.88 17.955 16.93C19.075 17.98 19.635 19.485 19.635 21.445C19.635 22.5417 19.355 23.5333 18.795 24.42C18.2583 25.3067 17.4883 25.995 16.485 26.485C18.8417 27.395 20.02 29.1217 20.02 31.665C20.02 33.555 19.4483 35.0833 18.305 36.25C17.185 37.4167 15.6683 38 13.755 38H0.945V34.955ZM11.725 25.05C12.7517 25.05 13.5683 24.77 14.175 24.21C14.7817 23.6267 15.085 22.7867 15.085 21.69C15.085 19.4967 14 18.4 11.83 18.4H7.84V25.05H11.725ZM12.32 34.955C13.2767 34.955 14.035 34.6633 14.595 34.08C15.1783 33.4967 15.47 32.645 15.47 31.525C15.47 30.335 15.155 29.4833 14.525 28.97C13.9183 28.4567 13.0433 28.2 11.9 28.2H7.84V34.955H12.32ZM30.7171 38.525C27.8471 38.525 25.6538 37.755 24.1371 36.215C22.6438 34.675 21.8971 32.4817 21.8971 29.635C21.8971 26.765 22.6438 24.56 24.1371 23.02C25.6305 21.4567 27.8238 20.675 30.7171 20.675C33.6338 20.675 35.8271 21.4567 37.2971 23.02C38.7905 24.56 39.5371 26.765 39.5371 29.635C39.5371 32.4817 38.7788 34.675 37.2621 36.215C35.7688 37.755 33.5871 38.525 30.7171 38.525ZM30.7171 35.41C32.1871 35.41 33.2605 34.9433 33.9371 34.01C34.6371 33.0767 34.9871 31.6183 34.9871 29.635C34.9871 27.6283 34.6371 26.1583 33.9371 25.225C33.2605 24.2683 32.1871 23.79 30.7171 23.79C29.2471 23.79 28.1621 24.2683 27.4621 25.225C26.7855 26.1583 26.4471 27.6283 26.4471 29.635C26.4471 31.6183 26.7855 33.0767 27.4621 34.01C28.1621 34.9433 29.2471 35.41 30.7171 35.41ZM50.2338 38.525C47.3638 38.525 45.1704 37.755 43.6538 36.215C42.1604 34.675 41.4138 32.4817 41.4138 29.635C41.4138 26.765 42.1604 24.56 43.6538 23.02C45.1471 21.4567 47.3404 20.675 50.2338 20.675C53.1504 20.675 55.3438 21.4567 56.8138 23.02C58.3071 24.56 59.0538 26.765 59.0538 29.635C59.0538 32.4817 58.2954 34.675 56.7788 36.215C55.2854 37.755 53.1038 38.525 50.2338 38.525ZM50.2338 35.41C51.7038 35.41 52.7771 34.9433 53.4538 34.01C54.1538 33.0767 54.5038 31.6183 54.5038 29.635C54.5038 27.6283 54.1538 26.1583 53.4538 25.225C52.7771 24.2683 51.7038 23.79 50.2338 23.79C48.7638 23.79 47.6788 24.2683 46.9788 25.225C46.3021 26.1583 45.9638 27.6283 45.9638 29.635C45.9638 31.6183 46.3021 33.0767 46.9788 34.01C47.6788 34.9433 48.7638 35.41 50.2338 35.41ZM60.0417 34.955H60.9517C61.4417 34.955 61.7917 34.85 62.0017 34.64C62.2117 34.4067 62.3167 34.0567 62.3167 33.59V19.345C62.3167 18.8317 62.2233 18.4583 62.0367 18.225C61.8733 17.9917 61.535 17.875 61.0217 17.875H60.0417V14.83H66.9017V27.92L71.1017 24.245H69.6667V21.2H78.3817V24.245H76.6317C76.2583 24.245 75.9783 24.2917 75.7917 24.385C75.605 24.455 75.3717 24.6067 75.0917 24.84L72.1867 27.395L76.1067 34.115C76.3167 34.465 76.515 34.6983 76.7017 34.815C76.8883 34.9083 77.2033 34.955 77.6467 34.955H79.1167V38H73.9017L69.1067 29.81L66.9017 31.735V33.66C66.9017 34.1033 66.995 34.43 67.1817 34.64C67.3917 34.85 67.73 34.955 68.1967 34.955H69.1067V38H60.0417V34.955Z" fill="#2B5A91" fill-opacity="0.88"/>
<path d="M98.695 14.97H103.525V18.68H98.695V14.97ZM96.595 34.955H97.505C97.995 34.955 98.345 34.85 98.555 34.64C98.765 34.4067 98.87 34.0567 98.87 33.59V25.715C98.87 25.2017 98.7767 24.8283 98.59 24.595C98.4267 24.3617 98.0883 24.245 97.575 24.245H96.595V21.2H103.455V33.66C103.455 34.1033 103.548 34.43 103.735 34.64C103.945 34.85 104.283 34.955 104.75 34.955H105.66V38H96.595V34.955ZM115.095 38.525C112.949 38.525 111.327 38.035 110.23 37.055C109.157 36.0517 108.62 34.605 108.62 32.715V24.245H105.96V21.2H108.62V17.595L113.205 16.23V21.2H118V24.245H113.205V33.065C113.205 33.9283 113.38 34.5583 113.73 34.955C114.104 35.3517 114.652 35.55 115.375 35.55C116.262 35.55 116.95 35.34 117.44 34.92V33.415H121.15V36.355C119.704 37.8017 117.685 38.525 115.095 38.525Z" fill="#2B5A90" fill-opacity="0.88"/>
<circle cx="87" cy="32" r="6" fill="#435A74"/>
</svg>
